<svg width="320" height="320"><path style="fill:#ffffff;stroke:none;" d="M0 0L0 320L320 320L320 0L0 0z"/><path style="fill:#c793ac;stroke:none;" d="M97.6667 44.3333L98.3333 44.6667L97.6667 44.3333z"/><path style="fill:#b32078;stroke:none;" d="M68 115L87.7145 112.401L109 102C109.002 87.1741 116.47 72.6079 132 68.6096C140.984 66.2965 150.939 68.7634 160 68.9853C183.606 69.5637 207.468 71.1429 231 73C220.958 53.6557 184.931 55.2077 166 52.7184C151.342 50.7909 136.589 48.7538 122 46.4105C112.104 44.8209 101.638 42.2004 92 46.3596C73.8257 54.2021 73.9933 72.2771 71.5718 89C70.3154 97.6764 68.0729 106.191 68 115z"/><path style="fill:#cda1b6;stroke:none;" d="M109 44L109 45L112 45L109 44z"/><path style="fill:#e4d1dc;stroke:none;" d="M116 45L116 46L120 46L116 45z"/><path style="fill:#c386a7;stroke:none;" d="M122 46L122 47L125 47L122 46z"/><path style="fill:#c27e9e;stroke:none;" d="M129 47L129 48L132 48L129 47z"/><path style="fill:#cfa5ba;stroke:none;" d="M144 49L144 50L147 50L144 49z"/><path style="fill:#c58aa9;stroke:none;" d="M157 51L157 52L160 52L157 51z"/><path style="fill:#dfc3d1;stroke:none;" d="M164 52L164 53L168 53L164 52z"/><path style="fill:#dcc6d1;stroke:none;" d="M178 54L178 55L182 55L178 54z"/><path style="fill:#dbc6d2;stroke:none;" d="M185 55L185 56L189 56L185 55z"/><path style="fill:#dfc7d1;stroke:none;" d="M192 56L192 57L196 57L192 56z"/><path style="fill:#e3c8d5;stroke:none;" d="M199 57L199 58L203 58L199 57z"/><path style="fill:#d6afc0;stroke:none;" d="M207 58L207 59L210 59L207 58z"/><path style="fill:#cfa9bc;stroke:none;" d="M212.667 59.3333L213.333 59.6667L212.667 59.3333z"/><path style="fill:#cd9cb4;stroke:none;" d="M74.3333 66.6667L74.6667 67.3333L74.3333 66.6667z"/><path style="fill:#622d7b;stroke:none;" d="M109 101C149.231 100.17 197.817 78.6057 235 97C235.523 90.3747 237.898 78.7469 231.442 73.9884C223.717 68.2938 202.444 71.3742 193 70.9606C163.358 69.6627 109.005 55.1895 109 101z"/><path style="fill:#0ea673;stroke:none;" d="M232 73C234.719 81.1737 233.807 88.054 235.353 96C236.583 102.318 242.378 107.394 243.96 114C248.593 133.355 248.647 154.296 251.424 174C253.766 190.615 259.069 211.47 256 228C270.757 217.1 267.805 186.594 268.004 170C268.231 151.015 270.549 132.019 271.015 113C271.381 98.0563 271.038 83.8621 255 76.5185C248.154 73.384 239.434 73.3192 232 73z"/><path style="fill:#64b492;stroke:none;" d="M237 73L237 74L246 74L237 73z"/><path style="fill:#bdd9ce;stroke:none;" d="M249.667 74.3333L250.333 74.6667L249.667 74.3333z"/><path style="fill:#ddbccb;stroke:none;" d="M72 78L72 81L73 81L72 78z"/><path style="fill:#bf7da0;stroke:none;" d="M71 87L71 90L72 90L71 87z"/><path style="fill:#4a256a;stroke:none;" d="M108 111C102.428 111.015 91.6031 110.283 87.3904 114.318C80.035 121.364 82.1992 133.103 82.9144 142C84.6511 163.608 89.9856 185.297 90 207L104 208C99.9706 186.296 105.999 162.915 106 141C106 134.15 104.528 119.069 108.179 113.279C111.655 107.765 126.202 109.317 132 108.91C153.416 107.41 184.242 97.6693 200.699 116.04C209.325 125.669 209.237 137.833 210.09 150C211.446 169.353 213.474 188.665 215 208L216 208C222.482 196.842 222.471 183.488 224.271 171C227.818 146.387 230.447 121.439 235 97C219.738 86.1971 205.38 89.6292 188 91.7145L138 97.8449C126.275 99.2525 108.011 96.2372 108 111z"/><path style="fill:#bd7d9c;stroke:none;" d="M70.3333 94.6667L70.6667 95.3333L70.3333 94.6667z"/><path style="fill:#aad0bf;stroke:none;" d="M271.333 96.6667L271.667 97.3333L271.333 96.6667z"/><path style="fill:#d84b15;stroke:none;" d="M235 98L227.41 150L220.547 196L215.172 211L217 235C197.347 235 177.586 233.431 158 232.09C147.956 231.402 136.78 232.721 127 230.073C110.203 225.523 108.794 207.367 91 207C91.1496 225.073 92.4723 253.508 112 261.387C126.253 267.139 146.251 261.546 161 259.428C173.607 257.618 186.367 256.626 199 254.87C203.249 254.279 210.08 254.695 213.298 251.436C217.03 247.657 216.986 240.906 217 236C228.102 236 245.734 240.19 254.258 230.362C260.036 223.7 254.635 207.734 254.09 200C252.347 175.27 249.704 149.44 245.385 125C243.652 115.192 243.497 104.563 235 98z"/><path style="fill:#731c46;stroke:none;" d="M89 112L108 111L108 102C100.401 102.348 93.6504 105.975 89 112z"/><path style="fill:#b9b2bf;stroke:none;" d="M172 105L172 106L182 106L172 105z"/><path style="fill:#bcb6c1;stroke:none;" d="M161 106L161 107L166 107L161 106z"/><path style="fill:#ffffff;stroke:none;" d="M108 111L104.91 176L104 209C126.416 209.463 149.776 215.068 172 218.271C183.114 219.872 196.821 222.703 206.999 216.521C217.439 210.18 213.28 199.165 213.015 189C212.726 177.934 210.845 167.028 210.09 156C208.988 139.914 210.624 120.143 194.999 110.468C185.249 104.431 173.87 105.792 163 106.83C144.922 108.558 126.146 110.85 108 111z"/><path style="fill:#948aa1;stroke:none;" d="M185.667 106.333L186.333 106.667L185.667 106.333z"/><path style="fill:#9f98a8;stroke:none;" d="M146 107L146 108L154 108L146 107z"/><path style="fill:#5eae8b;stroke:none;" d="M271 107L271 113L272 113L271 107z"/><path style="fill:#b5b1bc;stroke:none;" d="M135 108L135 109L142 109L135 108z"/><path style="fill:#a098a9;stroke:none;" d="M191 108L192 109L191 108z"/><path style="fill:#aba3b1;stroke:none;" d="M123 109L123 110L127 110L123 109z"/><path style="fill:#aea6b4;stroke:none;" d="M111 110L111 111L116 111L111 110z"/><path style="fill:#8e824e;stroke:none;" d="M243 111L243 114L244 114L243 111z"/><path style="fill:#622d7b;stroke:none;" d="M67 115C66.1298 135.267 57.2462 156.784 59.1713 177C60.779 193.883 72.9969 205.953 90 206C89.9805 176.499 73.6622 140.256 88 113L67 115z"/><path style="fill:#8a7f96;stroke:none;" d="M107 113L107 118L108 118L107 113z"/><path style="fill:#aad1be;stroke:none;" d="M271 113L271 119L272 119L271 113z"/><path style="fill:#21afdf;stroke:none;" d="M212 254C188.452 254.065 163.462 259.442 140 262.285C120.756 264.618 101.805 262.979 94.8387 241C91.5843 230.731 90.4625 216.772 90 206C73.3163 205.86 60.4319 192.501 59.1852 176C57.7021 156.37 66.155 135.68 67 116C55.6186 118.054 47.3803 128.776 46.1736 140C44.8094 152.689 47.6278 166.364 48.8302 179C50.3814 195.299 51.2775 211.684 52.8302 228C54.0261 240.566 52.2587 254.228 60.3009 264.961C71.2926 279.629 87.1853 276.7 103 275.17C119.291 273.593 135.678 272.207 152 271.09C170.318 269.835 202.036 273.154 212 254z"/><path style="fill:#a87544;stroke:none;" d="M244 116L244 121L245 121L244 116z"/><path style="fill:#bdb9c3;stroke:none;" d="M107 118L107 123L108 123L107 118z"/><path style="fill:#746488;stroke:none;" d="M106 130L106 135L107 135L106 130z"/><path style="fill:#a1cbb7;stroke:none;" d="M270 130L270 135L271 135L270 130z"/><path style="fill:#c9c4cd;stroke:none;" d="M208 131L208 138L209 138L208 131z"/><path style="fill:#b4aeb9;stroke:none;" d="M106 135L106 141L107 141L106 135z"/><path style="fill:#88c7e4;stroke:none;" d="M46.3333 136.667L46.6667 137.333L46.3333 136.667z"/><path style="fill:#6b8d5a;stroke:none;" d="M247 139L247 144L248 144L247 139z"/><path style="fill:#b7d9e7;stroke:none;" d="M45 140L45 150L46 150L45 140z"/><path style="fill:#ada5b3;stroke:none;" d="M209 141L209 145L210 145L209 141z"/><path style="fill:#93c3ac;stroke:none;" d="M269 146L269 151L270 151L269 146z"/><path style="fill:#96804a;stroke:none;" d="M248 149L248 154L249 154L248 149z"/><path style="fill:#c2dbd0;stroke:none;" d="M269 151L269 158L270 158L269 151z"/><path style="fill:#92cce1;stroke:none;" d="M46 153L46 157L47 157L46 153z"/><path style="fill:#b3adba;stroke:none;" d="M105 153L105 157L106 157L105 153z"/><path style="fill:#aaa3b0;stroke:none;" d="M210 153L210 160L211 160L210 153z"/><path style="fill:#5d945d;stroke:none;" d="M249 155L249 159L250 159L249 155z"/><path style="fill:#8fc2ab;stroke:none;" d="M268 163L268 168L269 168L268 163z"/><path style="fill:#988fa3;stroke:none;" d="M211 164L211 169L212 169L211 164z"/><path style="fill:#9dd1e3;stroke:none;" d="M47 165L47 170L48 170L47 165z"/><path style="fill:#9d97a6;stroke:none;" d="M104 168L104 173L105 173L104 168z"/><path style="fill:#cbc8cf;stroke:none;" d="M104 173L104 180L105 180L104 173z"/><path style="fill:#a67a46;stroke:none;" d="M251 174L251 178L252 178L251 174z"/><path style="fill:#72c1dc;stroke:none;" d="M48 176L48 180L49 180L48 176z"/><path style="fill:#8f8399;stroke:none;" d="M212 176L212 181L213 181L212 176z"/><path style="fill:#bdddf0;stroke:none;" d="M48 180L48 185L49 185L48 180z"/><path style="fill:#73b899;stroke:none;" d="M267 180L267 185L268 185L267 180z"/><path style="fill:#7f8755;stroke:none;" d="M252 181L252 185L253 185L252 181z"/><path style="fill:#94899f;stroke:none;" d="M103 185L103 191L104 191L103 185z"/><path style="fill:#b9d6c8;stroke:none;" d="M267 185L267 190L268 190L267 185z"/><path style="fill:#9fcee4;stroke:none;" d="M49 190L49 195L50 195L49 190z"/><path style="fill:#cbc7ce;stroke:none;" d="M103 191L103 196L104 196L103 191z"/><path style="fill:#bdb7c2;stroke:none;" d="M213 191L213 195L214 195L213 191z"/><path style="fill:#57ae88;stroke:none;" d="M266 196L266 201L267 201L266 196z"/><path style="fill:#a67849;stroke:none;" d="M254 199L254 204L255 204L254 199z"/><path style="fill:#a1cdb8;stroke:none;" d="M266 201L266 210L267 210L266 201z"/><path style="fill:#9dcde9;stroke:none;" d="M50 202L50 207L51 207L50 202z"/><path style="fill:#bab3c0;stroke:none;" d="M214 203L214 210L215 210L214 203z"/><path style="fill:#59a1c4;stroke:none;" d="M90 207L90 212L91 212L90 207z"/><path style="fill:#b83517;stroke:none;" d="M105 209C106.907 219.568 116.747 227.966 127 230.319C136.612 232.526 147.205 231.419 157 232.09C176.926 233.454 197.004 235 217 235L215 210L196 220.482L167 218L105 209z"/><path style="fill:#d3a7a4;stroke:none;" d="M108 209L108 210L111 210L108 209z"/><path style="fill:#e7d5d2;stroke:none;" d="M115 210L115 211L120 211L115 210z"/><path style="fill:#dbc2be;stroke:none;" d="M121 211L121 212L125 212L121 211z"/><path style="fill:#c78983;stroke:none;" d="M128.667 212.333L129.333 212.667L128.667 212.333z"/><path style="fill:#afd2c3;stroke:none;" d="M265.333 212.667L265.667 213.333L265.333 212.667z"/><path style="fill:#dcc6c3;stroke:none;" d="M135 213L135 214L139 214L135 213z"/><path style="fill:#d0e7ed;stroke:none;" d="M51 214L51 223L52 223L51 214z"/><path style="fill:#7099b0;stroke:none;" d="M91 214L91 219L92 219L91 214z"/><path style="fill:#c79590;stroke:none;" d="M142 214L142 215L145 215L142 214z"/><path style="fill:#dfc6c4;stroke:none;" d="M149 215L149 216L153 216L149 215z"/><path style="fill:#c6948d;stroke:none;" d="M156 216L156 217L159 217L156 216z"/><path style="fill:#a17945;stroke:none;" d="M256 216L256 226L257 226L256 216z"/><path style="fill:#e1cbc8;stroke:none;" d="M163 217L163 218L167 218L163 217z"/><path style="fill:#decac8;stroke:none;" d="M170 218L170 219L174 219L170 218z"/><path style="fill:#decac6;stroke:none;" d="M177 219L177 220L181 220L177 219z"/><path style="fill:#efdfdc;stroke:none;" d="M184 220L184 221L197 221L184 220z"/><path style="fill:#ad746b;stroke:none;" d="M92 221L92 224L93 224L92 221z"/><path style="fill:#8fc8e6;stroke:none;" d="M52 225L52 230L53 230L52 225z"/><path style="fill:#99859b;stroke:none;" d="M93 231L93 234L94 234L93 231z"/><path style="fill:#f49306;stroke:none;" d="M253 231C240.962 237.844 230.236 236 217 236L213 253C224.465 252.095 237.898 251.66 246.826 243.532C250.172 240.486 254.283 235.695 253 231z"/><path style="fill:#ad7164;stroke:none;" d="M94.3333 237.667L94.6667 238.333L94.3333 237.667z"/><path style="fill:#7696b5;stroke:none;" d="M94.3333 239.667L94.6667 240.333L94.3333 239.667z"/><path style="fill:#b0d7ed;stroke:none;" d="M53 240L53 245L54 245L53 240z"/><path style="fill:#888e9f;stroke:none;" d="M95.3333 242.667L95.6667 243.333L95.3333 242.667z"/><path style="fill:#f3c49b;stroke:none;" d="M225 251L225 252L232 252L225 251z"/><path style="fill:#f1aa66;stroke:none;" d="M217 252L217 253L220 253L217 252z"/><path style="fill:#b5675a;stroke:none;" d="M209 253L209 254L213 254L209 253z"/><path style="fill:#b46f61;stroke:none;" d="M201 254L201 255L204 255L201 254z"/><path style="fill:#7a92b0;stroke:none;" d="M194 255L194 256L199 256L194 255z"/><path style="fill:#ad7672;stroke:none;" d="M185 256L185 257L188 257L185 256z"/><path style="fill:#5ca0c0;stroke:none;" d="M179 257L179 258L184 258L179 257z"/><path style="fill:#719bba;stroke:none;" d="M170 258L170 259L174 259L170 258z"/><path style="fill:#938895;stroke:none;" d="M160 259L160 260L166 260L160 259z"/><path style="fill:#5e9fbc;stroke:none;" d="M154 260L154 261L159 261L154 260z"/><path style="fill:#898ba3;stroke:none;" d="M143 261L143 262L149 262L143 261z"/><path style="fill:#a37a7e;stroke:none;" d="M114.667 262.333L115.333 262.667L114.667 262.333z"/><path style="fill:#a37a77;stroke:none;" d="M134 262L134 263L139 263L134 262z"/><path style="fill:#ad7367;stroke:none;" d="M117 263L117 264L121 264L117 263z"/><path style="fill:#7a94ad;stroke:none;" d="M128 263L128 264L132 264L128 263z"/><path style="fill:#aad6e8;stroke:none;" d="M193.667 267.333L194.333 267.667L193.667 267.333z"/><path style="fill:#aed2e4;stroke:none;" d="M184 268L184 269L190 269L184 268z"/><path style="fill:#9dcee7;stroke:none;" d="M172 269L172 270L177 270L172 269z"/><path style="fill:#cae1eb;stroke:none;" d="M163 270L163 271L170 271L163 270z"/><path style="fill:#9fcfe7;stroke:none;" d="M148 271L148 272L155 272L148 271z"/><path style="fill:#8bcae0;stroke:none;" d="M135 272L135 273L140 273L135 272z"/><path style="fill:#a8d4e5;stroke:none;" d="M123 273L123 274L129 274L123 273z"/><path style="fill:#9ecae9;stroke:none;" d="M111 274L111 275L118 275L111 274z"/><path style="fill:#acd4e9;stroke:none;" d="M100 275L100 276L105 276L100 275z"/><path style="fill:#d5e9ef;stroke:none;" d="M90 276L90 277L98 277L90 276z"/></svg>